<?xml version="1.0" encoding="UTF-8"?>
<svg width="20px" height="20px" viewBox="0 0 20 20" version="1.1" xmlns="http://www.w3.org/2000/svg" xmlns:xlink="http://www.w3.org/1999/xlink">
    <!-- Generator: Sketch 64 (93537) - https://sketch.com -->
    <title>ic_no</title>
    <desc>Created with Sketch.</desc>
    <g id="ic_no" stroke="none" stroke-width="1" fill="none" fill-rule="evenodd">
        <g id="no" fill="#E9605D" fill-rule="nonzero">
            <path d="M10,0 C4.4773791,0 0,4.4773791 0,10 C0,15.5226209 4.4773791,20 10,20 C15.5226209,20 20,15.5226209 20,10 C20,4.4773791 15.5226209,0 10,0 Z M14.3280588,13.6483174 C14.3748607,13.6995766 14.3748607,13.7775797 14.3280588,13.8288389 L13.8555828,14.3392021 C13.8065523,14.39269 13.7240918,14.3971473 13.670604,14.3503454 L10,11.1789614 L6.32939603,14.3503454 C6.27590818,14.3971473 6.19344774,14.39269 6.14441721,14.3392021 L5.67194116,13.8288389 C5.62513929,13.7775797 5.62513929,13.6995766 5.67194116,13.6483174 L8.83886784,10.1760642 L5.64519724,7.41921105 C5.58948072,7.37240918 5.58279474,7.28994874 5.62959661,7.23200357 L6.88433252,5.70982839 C6.93559171,5.6474259 7.03142411,5.64519724 7.08714063,5.70537107 L10,8.90127034 L12.9128594,5.70537107 C12.9685759,5.64519724 13.0621796,5.6474259 13.1156675,5.70982839 L14.3704034,7.23200357 C14.4172053,7.28772008 14.4105193,7.37018052 14.3548028,7.41921105 L11.1633608,10.1760642 L14.3280588,13.6483174 L14.3280588,13.6483174 Z" id="形状"></path>
        </g>
    </g>
</svg>