<?xml version="1.0" encoding="UTF-8"?>
<svg width="30px" height="30px" viewBox="0 0 30 30" version="1.1" xmlns="http://www.w3.org/2000/svg" xmlns:xlink="http://www.w3.org/1999/xlink">
    <!-- Generator: Sketch 64 (93537) - https://sketch.com -->
    <title>ic_payment manage</title>
    <desc>Created with Sketch.</desc>
    <g id="ic_payment-manage" stroke="none" stroke-width="1" fill="none" fill-rule="evenodd">
        <g id="card" transform="translate(2.000000, 6.000000)" fill-rule="nonzero">
            <rect id="矩形" fill="#000000" opacity="0" x="3" y="4" width="14" height="14"></rect>
            <path d="M1.18181818,6.54545455 L24.8181818,6.54545455 C25.470882,6.54545455 26,7.05829201 26,7.69090909 L26,11.1272727 C26,14.9227364 22.8250455,18 18.9090909,18 L7.09090909,18 C3.17495455,18 0,14.9227364 0,11.1272727 L0,7.69090909 C0,7.05829201 0.529118023,6.54545455 1.18181818,6.54545455 Z M16.8133334,11.4545455 C16.3798511,11.4545455 15.979297,11.6884623 15.7625558,12.0681818 C15.5458147,12.4479013 15.5458147,12.915735 15.7625558,13.2954546 C15.979297,13.6751741 16.3798511,13.9090909 16.8133334,13.9090909 L20.4533333,13.9090909 C20.8868156,13.9090909 21.2873697,13.6751741 21.5041108,13.2954546 C21.7208519,12.915735 21.7208519,12.4479013 21.5041108,12.0681818 C21.2873697,11.6884623 20.8868156,11.4545455 20.4533333,11.4545455 L16.8133334,11.4545455 L16.8133334,11.4545455 Z M2.36363636,0 L23.6363636,0 C24.941764,0 26,1.09893743 26,2.45454545 L26,3.68181818 C26,4.35962219 25.470882,4.90909091 24.8181818,4.90909091 L1.18181818,4.90909091 C0.529118023,4.90909091 0,4.35962219 0,3.68181818 L0,2.45454545 C0,1.09893743 1.05823605,0 2.36363636,0 L2.36363636,0 Z" id="形状" fill="#FFFFFF"></path>
        </g>
    </g>
</svg>