<?xml version="1.0" encoding="UTF-8"?>
<svg width="30px" height="30px" viewBox="0 0 30 30" version="1.1" xmlns="http://www.w3.org/2000/svg" xmlns:xlink="http://www.w3.org/1999/xlink">
    <!-- Generator: Sketch 64 (93537) - https://sketch.com -->
    <title>ic_usermanage</title>
    <desc>Created with Sketch.</desc>
    <g id="ic_usermanage" stroke="none" stroke-width="1" fill="none" fill-rule="evenodd">
        <g fill-rule="nonzero">
            <rect id="矩形" fill="#000000" opacity="0" x="0" y="0" width="30" height="30"></rect>
            <path d="M2.32047719,7.70180604 L2.32047719,26.0795567 C2.25161643,26.7647143 2.46296304,27.4485204 2.90519333,27.9713895 C3.34742361,28.4942587 3.98184573,28.8104437 4.66039934,28.8461538 L21.4269463,28.8461538 C22.0753213,28.825681 22.6883922,28.5420153 23.1284049,28.0588949 C23.5684175,27.5757746 23.7984692,26.9337176 23.7668684,26.2769911 L23.7668684,7.70180604 C23.7984692,7.04507956 23.5684175,6.40302256 23.1284049,5.9199022 C22.6883922,5.43678184 22.0753213,5.15311608 21.4269463,5.13264328 L4.66039934,5.13264328 C4.01202429,5.15311608 3.39895339,5.43678183 2.95894077,5.91990219 C2.51892815,6.40302255 2.28887645,7.04507956 2.32047719,7.70180604 Z M15.9679551,14.0259957 C16.008311,14.8278591 15.7268171,15.6121494 15.1875675,16.2002896 C14.5609633,16.6647487 13.8169998,16.9390771 13.0424321,16.9912849 C12.2513222,17.0321893 11.4775496,16.7468691 10.8972967,16.2002896 C10.4390663,15.565168 10.1684168,14.8110919 10.1169091,14.0259957 C10.1684168,13.2408995 10.4390663,12.4868234 10.8972967,11.8517018 C11.4775496,11.3051224 12.2513222,11.0198021 13.0424321,11.0607066 C13.8169998,11.1129143 14.5609632,11.3872427 15.1875675,11.8517018 C15.7265007,12.4395323 16.0079709,13.2233031 15.9679551,14.0247382 L15.9679551,14.0259957 Z M6.21993386,23.5103939 C6.21993386,20.5463623 10.7037507,18.9656292 13.0436728,18.9656292 C15.3835949,18.9656292 19.8674118,20.5463623 19.8674118,23.5103939 L19.8674118,24.8936925 L6.21993386,24.8936925 L6.21993386,23.5103939 Z M8.16904184,1.18018194 L23.7668684,1.18018194 C24.8358703,1.04748384 25.9056205,1.42102435 26.6671665,2.19292192 C27.4287125,2.9648195 27.7972436,4.04911066 27.6663251,5.13264328 L27.6663251,23.9052628 C27.6790458,24.2665758 27.4961292,24.6061001 27.1893651,24.7905816 C26.8826009,24.9750631 26.5009412,24.9750631 26.1941771,24.7905816 C25.8874129,24.6061001 25.7044963,24.2665758 25.7172171,23.9052628 L25.7172171,5.13264328 C25.7172171,3.7493447 25.1328569,3.15704139 23.7681091,3.15704139 L7.19510819,3.15704139 C6.93186059,3.17339427 6.67433619,3.07451924 6.48784277,2.88549084 C6.30134934,2.69646244 6.20380028,2.43543756 6.21993386,2.16861167 C6.20380028,1.90178577 6.30134934,1.64076089 6.48784277,1.45173249 C6.67433619,1.26270409 6.93186059,1.16382906 7.19510819,1.18018194 L8.16904184,1.18018194 Z" id="形状" fill="#FFFFFF"></path>
        </g>
    </g>
</svg>